<svg width="18" height="18" viewBox="0 0 18 18" fill="none"
    xmlns="http://www.w3.org/2000/svg">
    <rect width="18" height="18" rx="1" fill="#00F6FF"/>
    <path fill-rule="evenodd" clip-rule="evenodd" d="M6.69033 5.78982L6.69571 7.54973C6.69571 7.99683 6.92304 8.21818 7.37311 8.21818H7.56972C7.67167 8.21818 7.76219 8.20683 7.84123 8.18406C7.56414 8.49109 7.32728 8.83512 7.13896 9.20783C6.12816 9.14394 5.61893 8.58141 5.61893 7.64105V3.33735C5.61893 2.07276 6.19495 1.5 7.33778 1.5H7.56511C8.70717 1.5 9.28319 2.07276 9.28319 3.20219L9.27858 5.78471H6.69033V5.78982ZM8.21179 4.76558V3.1642C8.21179 2.7171 7.98983 2.49136 7.53439 2.49136H7.36312C6.91306 2.49136 6.68572 2.7171 6.68572 3.1642V4.76558H8.21179Z" fill="black"/>
    <path d="M12.526 6.80259C12.1378 6.69804 11.7296 6.64227 11.3084 6.64227C11.2656 6.64227 11.2229 6.64285 11.1804 6.64399L12.5488 5.37121L10.7494 3.66902V2.2795L13.4989 4.8759V5.89575L12.526 6.80259Z" fill="black"/>
    <path d="M9.28319 7.10311C8.89332 7.29106 8.53358 7.53158 8.21318 7.81549C8.23579 7.73812 8.24712 7.64955 8.24712 7.54973V6.68402H9.28319V7.10311Z" fill="black"/>
    <path d="M4.24954 2.2795V3.66902L2.45005 5.37121L4.24954 7.0398V8.45854L1.5 5.89575V4.8759L4.24954 2.2795Z" fill="black"/>
    <path fill-rule="evenodd" clip-rule="evenodd" d="M15.7688 16.3742L13.9888 14.5931C13.2583 15.1896 12.3252 15.5474 11.3085 15.5474C8.96698 15.5474 7.06885 13.6499 7.06885 11.3091C7.06885 8.96835 8.96698 7.0708 11.3085 7.0708C13.6499 7.0708 15.5481 8.96835 15.5481 11.3091C15.5481 12.3247 15.1907 13.2569 14.5949 13.9868L16.3753 15.7683C16.5427 15.9358 16.5426 16.2071 16.3751 16.3744C16.2076 16.5417 15.9361 16.5416 15.7688 16.3742ZM11.3085 7.92799C9.44054 7.92799 7.9263 9.44176 7.9263 11.3091C7.9263 13.1764 9.44054 14.6902 11.3085 14.6902C12.243 14.6902 13.0889 14.3113 13.7011 13.6988C14.3125 13.0871 14.6906 12.2422 14.6906 11.3091C14.6906 9.44176 13.1764 7.92799 11.3085 7.92799Z" fill="black"/>
    <path d="M11.3085 8.49944C11.0717 8.49944 10.8797 8.69133 10.8797 8.92803C10.8797 9.16474 11.0717 9.35663 11.3085 9.35663C12.3871 9.35663 13.2615 10.2308 13.2615 11.3091C13.2615 11.5458 13.4535 11.7377 13.6903 11.7377C13.927 11.7377 14.119 11.5458 14.119 11.3091C14.119 9.75737 12.8607 8.49944 11.3085 8.49944Z" fill="black"/>
</svg>
