<svg width="18" height="18" viewBox="0 0 18 18" fill="none"
    xmlns="http://www.w3.org/2000/svg">
    <rect width="18" height="18" rx="1" fill="#DC1100"/>
    <path fill-rule="evenodd" clip-rule="evenodd" d="M15.9994 6.83257L13.0164 6.21295L13.3195 3.3309L10.5309 4.49562L9.00014 2L7.46818 4.49617L4.68073 3.33143L4.98317 6.21333L2 6.83007L4.03001 8.99793L2.00026 11.169L4.98296 11.7851L4.67685 14.6674L7.46756 13.5038L9.00016 16L10.5315 13.5038L13.3201 14.6674L13.017 11.7887L16 11.1685L13.9686 9.00057L15.9994 6.83257ZM13.9995 10.1357L13.2366 9.31932L12.445 9.03825L13.0913 9.83891L13.9995 10.1357ZM13.3428 8.56694L14.5388 7.28995L12.7663 6.92147L11.92 8.06283L13.3428 8.56694ZM11.7648 5.96447L11.7332 7.04687L12.2338 6.36935L12.3576 5.20223L11.7648 5.96447ZM10.6137 5.27057L10.1238 5.86743L11.1515 5.51867L11.6985 4.81812L10.6137 5.27057ZM10.9454 7.97411L10.99 6.36076L9.37951 6.90636V8.4739L10.9454 7.97411ZM8.99999 3.44808L8.08717 4.93404L9.00005 6.04571L9.91192 4.93456L8.99999 3.44808ZM7.38651 5.27057L6.29943 4.81719L6.84534 5.51866L7.87655 5.86769L7.38651 5.27057ZM8.61776 8.47376V6.90636L7.00778 6.36092L7.0551 7.97411L8.61776 8.47376ZM5.76581 6.36943L6.26624 7.0471L6.23531 5.96441L5.64276 5.20229L5.76581 6.36943ZM5.23301 6.92137L3.46086 7.28759L4.65471 8.56427L6.0768 8.06244L5.23301 6.92137ZM4.76344 9.31668L3.99888 10.1345L4.90846 9.83878L5.55624 9.03669L4.76344 9.31668ZM4.17795 10.8604L5.37943 11.1105L6.23501 10.8505L5.14651 10.5456L4.17795 10.8604ZM5.56835 13.4857L7.23638 12.7911L7.19858 11.3384L5.74925 11.7739L5.56835 13.4857ZM7.41914 10.4093L8.37374 9.17745L6.81736 8.67714L5.78698 9.95168L7.41914 10.4093ZM8.61776 13.9318V12.9459L7.97958 12.0579L8.00128 12.9253L8.61776 13.9318ZM8.03864 10.8466L9.00013 12.1807L9.96208 10.8466L9.00013 9.60396L8.03864 10.8466ZM9.99834 12.9252L10.0204 12.0573L9.37951 12.9466V13.9331L9.99834 12.9252ZM11.182 8.67768L9.62246 9.17812L10.577 10.4098L12.21 9.95212L11.182 8.67768ZM10.763 12.7913L12.4283 13.4881L12.2501 11.7739L10.7985 11.3384L10.763 12.7913ZM12.6208 11.11L13.8225 10.8609L12.8541 10.545L11.7642 10.85L12.6208 11.11Z" fill="white"/>
</svg>
