<svg width="18" height="18" viewBox="0 0 18 18" fill="none"
    xmlns="http://www.w3.org/2000/svg">
    <g clip-path="url(#clip0_724_10747)">
        <path fill-rule="evenodd" clip-rule="evenodd" d="M6.30509 5.25455L6.31136 7.30767C6.31136 7.82926 6.57658 8.0875 7.10162 8.0875H7.331C7.85605 8.0875 8.12126 7.82926 8.12126 7.30767V6.29773H9.32995V7.00484C8.38207 7.53314 7.59227 8.31083 7.04935 9.24913C5.72346 9.24544 5.05519 8.57774 5.05519 7.41421V2.39347C5.05519 0.918182 5.72718 0.25 7.06041 0.25H7.32562C8.65796 0.25 9.32995 0.918182 9.32995 2.2358L9.32457 5.24858H6.30509V5.25455ZM8.08004 4.05966V2.19148C8.08004 1.66989 7.8211 1.40653 7.28978 1.40653H7.08998C6.56493 1.40653 6.29971 1.66989 6.29971 2.19148V4.05966H8.08004Z" fill="currentColor"/>
        <path d="M13.2283 6.32861L14.248 5.37813V4.18835L11.0404 1.15938V2.7804L13.1397 4.76619L11.4951 6.29581C11.7418 6.26493 11.9932 6.24902 12.2483 6.24902C12.582 6.24902 12.9094 6.27625 13.2283 6.32861Z" fill="currentColor"/>
        <path d="M3.45764 1.15938V2.7804L1.35834 4.76619L3.45764 6.71278V8.3679L0.25 5.37813V4.18835L3.45764 1.15938Z" fill="currentColor"/>
        <path fill-rule="evenodd" clip-rule="evenodd" d="M12.2483 7.74902C9.76222 7.74902 7.74689 9.76374 7.74689 12.249C7.74689 12.9685 7.91542 13.6472 8.21472 14.2491C8.36952 14.5605 8.36326 14.9461 8.32905 15.2549C8.29223 15.5872 8.2083 15.9426 8.118 16.2591C8.06842 16.4328 8.01566 16.5991 7.96519 16.749H12.2483C14.7343 16.749 16.7497 14.7343 16.7497 12.249C16.7497 9.76374 14.7343 7.74902 12.2483 7.74902ZM6.78565 17.0562L6.7871 17.0527L6.79343 17.0373C6.79912 17.0233 6.80765 17.0021 6.81853 16.9746C6.8403 16.9195 6.87137 16.8392 6.90775 16.7404C6.98077 16.5421 7.07388 16.2727 7.15607 15.9847C7.23904 15.694 7.30671 15.3986 7.33482 15.1448C7.36555 14.8674 7.33756 14.7316 7.31897 14.6942C6.95245 13.9571 6.74658 13.1264 6.74658 12.249C6.74658 9.21146 9.20977 6.74902 12.2483 6.74902C15.2868 6.74902 17.75 9.21146 17.75 12.249C17.75 15.2866 15.2868 17.749 12.2483 17.749H7.24753C7.08032 17.749 6.92377 17.6655 6.83101 17.5264C6.73827 17.3874 6.72144 17.2105 6.78565 17.0562ZM12.2278 10.6657C11.9436 10.6657 11.7036 10.86 11.6357 11.1237C11.5668 11.3911 11.2942 11.5521 11.0267 11.4832C10.7591 11.4144 10.5981 11.1418 10.667 10.8744C10.8458 10.1796 11.4761 9.66569 12.2278 9.66569C13.1178 9.66569 13.8394 10.387 13.8394 11.2768C13.8394 11.7732 13.5982 12.103 13.3392 12.3528C13.2337 12.4546 13.1135 12.5542 13.0036 12.6453C12.9874 12.6587 12.9714 12.672 12.9557 12.685C12.8274 12.7917 12.7033 12.8974 12.5814 13.0192C12.3861 13.2145 12.0694 13.2145 11.8741 13.0192C11.6788 12.824 11.6788 12.5074 11.8741 12.3121C12.0301 12.1562 12.1838 12.0261 12.316 11.9162C12.3335 11.9017 12.3504 11.8876 12.3668 11.874C12.4803 11.7799 12.5683 11.7069 12.6445 11.6333C12.8024 11.481 12.8391 11.3941 12.8391 11.2768C12.8391 10.9393 12.5654 10.6657 12.2278 10.6657ZM12.2333 14.8324H12.2278C11.9515 14.8324 11.7276 14.6085 11.7276 14.3324C11.7276 14.0562 11.9515 13.8324 12.2278 13.8324H12.2333C12.5096 13.8324 12.7335 14.0562 12.7335 14.3324C12.7335 14.6085 12.5096 14.8324 12.2333 14.8324Z" fill="currentColor"/>
    </g>
    <defs>
        <clipPath id="clip0_724_10747">
            <rect width="18" height="18" fill="white"/>
        </clipPath>
    </defs>
</svg>
