<svg width="18" height="18" viewBox="0 0 18 18" fill="none"
    xmlns="http://www.w3.org/2000/svg">
    <path fill-rule="evenodd" clip-rule="evenodd" d="M7.30533 5.25455L7.3116 7.30767C7.3116 7.82926 7.57683 8.0875 8.1019 8.0875H8.33128C8.85635 8.0875 9.12157 7.82926 9.12157 7.30767V6.29773H10.3303V6.85501C9.57907 7.38414 9.06026 8.21768 8.97423 9.18538C8.77906 9.22784 8.56293 9.24915 8.3259 9.24915H8.06068C6.7274 9.24915 6.05538 8.58097 6.05538 7.41421V2.39347C6.05538 0.918182 6.7274 0.25 8.06068 0.25H8.3259C9.65829 0.25 10.3303 0.918182 10.3303 2.2358L10.3249 5.24858H7.30533V5.25455ZM9.08036 4.05966V2.19148C9.08036 1.66989 8.8214 1.40653 8.29006 1.40653H8.09025C7.56518 1.40653 7.29995 1.66989 7.29995 2.19148V4.05966H9.08036Z" fill="currentColor"/>
    <path d="M13.8661 6.66661L15.2486 5.37813V4.18835L12.0408 1.15938V2.7804L14.1402 4.76619L12.533 6.26104C13.012 6.30164 13.4646 6.44381 13.8661 6.66661Z" fill="currentColor"/>
    <path d="M12.1658 8.25145L12.0408 8.3679V8.26457C12.0817 8.25836 12.1234 8.25395 12.1658 8.25145Z" fill="currentColor"/>
    <path d="M4.45777 1.15938V2.7804L2.35838 4.76619L4.45777 6.71278V8.3679L1.25 5.37813V4.18835L4.45777 1.15938Z" fill="currentColor"/>
    <path fill-rule="evenodd" clip-rule="evenodd" d="M12.2484 7.74902C11.2484 7.74902 10.4621 8.53327 10.4621 9.47125C10.4621 10.4092 11.2484 11.1935 12.2484 11.1935C13.2483 11.1935 14.0347 10.4092 14.0347 9.47125C14.0347 8.53327 13.2483 7.74902 12.2484 7.74902ZM9.46171 9.47125C9.46171 7.95462 10.7227 6.74902 12.2484 6.74902C13.7741 6.74902 15.0351 7.95462 15.0351 9.47125C15.0351 10.9879 13.7741 12.1935 12.2484 12.1935C10.7227 12.1935 9.46171 10.9879 9.46171 9.47125ZM8.78517 16.749H15.7116C15.4625 15.1238 14.0176 13.8601 12.2484 13.8601C10.4791 13.8601 9.03429 15.1238 8.78517 16.749ZM7.74683 17.249C7.74683 14.8119 9.77562 12.8601 12.2484 12.8601C14.7212 12.8601 16.7499 14.8119 16.7499 17.249C16.7499 17.5252 16.526 17.749 16.2498 17.749H8.247C7.97076 17.749 7.74683 17.5252 7.74683 17.249Z" fill="currentColor"/>
</svg>
