<svg width="18" height="18" viewBox="0 0 18 18" fill="none" xmlns="http://www.w3.org/2000/svg">
<path fill-rule="evenodd" clip-rule="evenodd" d="M5.83342 10.7163C6.31788 10.7163 7.28222 10.6903 8.61335 10.1416C10.1661 9.5028 13.2547 8.34284 15.4814 7.15079C17.0402 6.31788 17.7219 5.21447 17.7219 3.73052C17.7219 1.6704 16.0515 0 13.9913 0H5.35813C2.39786 0 0 2.39939 0 5.35813C0 8.31686 2.24809 10.7163 5.83342 10.7163Z" fill="#5D5E61"/>
<path fill-rule="evenodd" clip-rule="evenodd" d="M7.29443 14.4047C7.29443 12.9544 8.16708 11.6462 9.50737 11.0899L12.2262 9.96203C14.9755 8.82041 18.003 10.8423 18.003 13.8194C18.003 16.1256 16.1324 17.9962 13.8263 17.9946H10.8828C8.90065 17.9931 7.29443 16.3869 7.29443 14.4047Z" fill="#86888C"/>
<path d="M3.09181 11.4219C1.38626 11.4219 0.00317383 12.805 0.00317383 14.5105V14.9109C0.00317383 16.6165 1.38626 17.9996 3.09181 17.9996C4.79737 17.9996 6.18045 16.6165 6.18045 14.9109V14.5105C6.18045 12.805 4.79737 11.4219 3.09181 11.4219Z" fill="#AAACB2"/>
</svg>
