<svg width="18" height="18" viewBox="0 0 18 18" fill="none"
    xmlns="http://www.w3.org/2000/svg">
    <g clip-path="url(#clip0_718_10457)">
        <path fill-rule="evenodd" clip-rule="evenodd" d="M0.5 10C0.5 10.2761 0.723858 10.5 1 10.5C3.51956 10.5 5.93592 9.49911 7.71751 7.71751C9.49911 5.93592 10.5 3.51956 10.5 1C10.5 0.723858 10.2761 0.5 10 0.5C9.72386 0.5 9.5 0.723858 9.5 1C9.5 3.25434 8.60447 5.41635 7.01041 7.01041C5.41635 8.60447 3.25434 9.5 1 9.5C0.723858 9.5 0.5 9.72386 0.5 10ZM0.5 6.0625C0.5 6.33864 0.723858 6.5625 1 6.5625C2.47527 6.5625 3.89011 5.97645 4.93328 4.93328C5.97645 3.89011 6.5625 2.47527 6.5625 1C6.5625 0.723858 6.33864 0.5 6.0625 0.5C5.78636 0.5 5.5625 0.723858 5.5625 1C5.5625 2.21005 5.08181 3.37054 4.22617 4.22617C3.37054 5.08181 2.21005 5.5625 1 5.5625C0.723858 5.5625 0.5 5.78636 0.5 6.0625ZM1.5625 1.625C1.52798 1.625 1.5 1.59702 1.5 1.5625C1.5 1.52798 1.52798 1.5 1.5625 1.5C1.59702 1.5 1.625 1.52798 1.625 1.5625C1.625 1.59702 1.59702 1.625 1.5625 1.625ZM0.5 1.5625C0.5 2.1493 0.975697 2.625 1.5625 2.625C2.1493 2.625 2.625 2.1493 2.625 1.5625C2.625 0.975698 2.1493 0.5 1.5625 0.5C0.975697 0.5 0.5 0.975698 0.5 1.5625Z" fill="currentColor"/>
        <path fill-rule="evenodd" clip-rule="evenodd" d="M17.5 8C17.5 7.72386 17.2761 7.5 17 7.5C14.4804 7.5 12.0641 8.50089 10.2825 10.2825C8.50089 12.0641 7.5 14.4804 7.5 17C7.5 17.2761 7.72386 17.5 8 17.5C8.27614 17.5 8.5 17.2761 8.5 17C8.5 14.7457 9.39553 12.5837 10.9896 10.9896C12.5837 9.39553 14.7457 8.5 17 8.5C17.2761 8.5 17.5 8.27614 17.5 8ZM17.5 11.9375C17.5 11.6614 17.2761 11.4375 17 11.4375C15.5247 11.4375 14.1099 12.0235 13.0667 13.0667C12.0235 14.1099 11.4375 15.5247 11.4375 17C11.4375 17.2761 11.6614 17.5 11.9375 17.5C12.2136 17.5 12.4375 17.2761 12.4375 17C12.4375 15.7899 12.9182 14.6295 13.7738 13.7738C14.6295 12.9182 15.7899 12.4375 17 12.4375C17.2761 12.4375 17.5 12.2136 17.5 11.9375ZM16.4375 16.375C16.472 16.375 16.5 16.403 16.5 16.4375C16.5 16.472 16.472 16.5 16.4375 16.5C16.403 16.5 16.375 16.472 16.375 16.4375C16.375 16.403 16.403 16.375 16.4375 16.375ZM17.5 16.4375C17.5 15.8507 17.0243 15.375 16.4375 15.375C15.8507 15.375 15.375 15.8507 15.375 16.4375C15.375 17.0243 15.8507 17.5 16.4375 17.5C17.0243 17.5 17.5 17.0243 17.5 16.4375Z" fill="currentColor"/>
    </g>
    <defs>
        <clipPath id="clip0_718_10457">
            <rect width="18" height="18" fill="white"/>
        </clipPath>
    </defs>
</svg>
