<svg width="18" height="18" viewBox="0 0 18 18" fill="none"
    xmlns="http://www.w3.org/2000/svg">
    <g clip-path="url(#clip0_724_10602)">
        <path fill-rule="evenodd" clip-rule="evenodd" d="M6.43539 5.25455L6.4418 7.30767C6.4418 7.82926 6.71272 8.0875 7.24907 8.0875H7.48338C7.62658 8.0875 7.75087 8.06909 7.85612 8.03217C7.53379 8.3959 7.26252 8.80414 7.05324 9.24621C5.7934 9.19716 5.15859 8.53622 5.15859 7.41421V2.39347C5.15859 0.918182 5.84504 0.25 7.20696 0.25H7.47788C8.83889 0.25 9.52534 0.918182 9.52534 2.2358L9.51985 5.24858H6.43539V5.25455ZM8.24854 4.05966V2.19148C8.24854 1.66989 7.98403 1.40653 7.44127 1.40653H7.23717C6.70082 1.40653 6.4299 1.66989 6.4299 2.19148V4.05966H8.24854Z" fill="currentColor"/>
        <path d="M11.3647 8.28383L11.2726 8.3679V8.29861C11.3032 8.29326 11.3339 8.28833 11.3647 8.28383Z" fill="currentColor"/>
        <path d="M13.3589 6.46425C12.8797 6.32423 12.3719 6.24902 11.8461 6.24902C11.8268 6.24902 11.8075 6.24913 11.7882 6.24933L13.4171 4.76619L11.2726 2.7804V1.15938L14.5493 4.18835V5.37813L13.3589 6.46425Z" fill="currentColor"/>
        <path d="M9.52534 6.77369C9.05438 6.99963 8.62284 7.29218 8.24357 7.6388C8.27493 7.54366 8.29064 7.4333 8.29064 7.30767V6.29773H9.52534V6.77369Z" fill="currentColor"/>
        <path d="M3.52666 1.15938V2.7804L1.38219 4.76619L3.52666 6.71278V8.3679L0.25 5.37813V4.18835L3.52666 1.15938Z" fill="currentColor"/>
        <path fill-rule="evenodd" clip-rule="evenodd" d="M11.846 7.74902C9.77677 7.74902 8.09931 9.39064 8.09931 11.4157C8.09931 11.8451 8.17454 12.2563 8.31238 12.6379L8.31188 12.6366C8.67859 13.6427 8.43107 14.489 8.09976 15.0659C8.09659 15.0714 8.09342 15.0769 8.09024 15.0823H10.0304C9.95564 14.7982 9.9159 14.5004 9.9159 14.1935C9.9159 12.2298 11.5425 10.6379 13.5491 10.6379C14.3053 10.6379 15.0075 10.864 15.589 11.2508C15.5009 9.3023 13.8588 7.74902 11.846 7.74902ZM16.5495 12.1879C16.5923 11.9364 16.6146 11.6784 16.6146 11.4157C16.6146 8.83836 14.4796 6.74902 11.846 6.74902C9.21243 6.74902 7.07748 8.83836 7.07748 11.4157C7.07748 11.9602 7.173 12.484 7.34895 12.9712L7.34944 12.9725C7.59255 13.6396 7.43509 14.1822 7.20898 14.5759C7.0941 14.7759 6.96236 14.9345 6.85934 15.0426C6.80823 15.0963 6.76534 15.1363 6.73689 15.1616C6.7227 15.1742 6.71221 15.1831 6.70623 15.1881L6.7008 15.1925C6.5322 15.325 6.46701 15.5472 6.53834 15.7471C6.60994 15.9479 6.80344 16.0823 7.02071 16.0823H10.4704C11.1132 17.0835 12.2517 17.749 13.5491 17.749L17.239 17.749C17.4457 17.749 17.632 17.6272 17.7111 17.4404C17.7898 17.2544 17.7468 17.0406 17.6024 16.8976L17.5913 16.8858C17.5805 16.8743 17.5626 16.8546 17.539 16.8266C17.4918 16.7707 17.4221 16.6822 17.3418 16.5615C17.1988 16.3467 17.023 16.0308 16.8801 15.6151C17.0745 15.1792 17.1823 14.6981 17.1823 14.1935C17.1823 13.4494 16.9487 12.7588 16.5495 12.1879ZM16.2696 16.749L13.5491 16.749C12.1069 16.749 10.9377 15.6049 10.9377 14.1935C10.9377 12.7821 12.1069 11.6379 13.5491 11.6379C14.9913 11.6379 16.1604 12.7821 16.1604 14.1935C16.1604 14.6126 16.0577 15.0069 15.876 15.3548C15.8046 15.4914 15.8036 15.645 15.8599 15.7762C15.9795 16.161 16.1258 16.4855 16.2696 16.749Z" fill="currentColor"/>
    </g>
    <defs>
        <clipPath id="clip0_724_10602">
            <rect width="18" height="18" fill="white"/>
        </clipPath>
    </defs>
</svg>
