<svg width="18" height="18" viewBox="0 0 18 18" fill="none"
    xmlns="http://www.w3.org/2000/svg">
    <g clip-path="url(#clip0_724_10603)">
        <path fill-rule="evenodd" clip-rule="evenodd" d="M6.30509 5.25455L6.31136 7.30767C6.31136 7.82926 6.57658 8.0875 7.10162 8.0875H7.331C7.44993 8.0875 7.55553 8.07425 7.64774 8.04769C7.32449 8.40588 7.04816 8.80722 6.82846 9.24203C5.64926 9.1675 5.05519 8.51124 5.05519 7.41421V2.39347C5.05519 0.918182 5.72718 0.25 7.06041 0.25H7.32562C8.65796 0.25 9.32995 0.918182 9.32995 2.2358L9.32457 5.24858H6.30509V5.25455ZM8.08004 4.05966V2.19148C8.08004 1.66989 7.8211 1.40653 7.28978 1.40653H7.08998C6.56493 1.40653 6.29971 1.66989 6.29971 2.19148V4.05966H8.08004Z" fill="currentColor"/>
        <path d="M13.113 6.43605C12.6602 6.31408 12.184 6.24902 11.6926 6.24902C11.6427 6.24902 11.5929 6.2497 11.5433 6.25103L13.1397 4.76619L11.0404 2.7804V1.15938L14.248 4.18835V5.37813L13.113 6.43605Z" fill="currentColor"/>
        <path d="M9.32995 6.78664C8.87512 7.0059 8.45545 7.2865 8.08166 7.61771C8.10804 7.52745 8.12126 7.42413 8.12126 7.30767V6.29773H9.32995V6.78664Z" fill="currentColor"/>
        <path d="M3.45764 1.15938V2.7804L1.35834 4.76619L3.45764 6.71278V8.3679L0.25 5.37813V4.18835L3.45764 1.15938Z" fill="currentColor"/>
        <path fill-rule="evenodd" clip-rule="evenodd" d="M16.896 17.6024L14.8194 15.5246C13.9673 16.2205 12.8787 16.6379 11.6925 16.6379C8.96097 16.6379 6.74658 14.4242 6.74658 11.6935C6.74658 8.96273 8.96097 6.74902 11.6925 6.74902C14.4241 6.74902 16.6385 8.96273 16.6385 11.6935C16.6385 12.8783 16.2216 13.9658 15.5266 14.8173L17.6036 16.8956C17.7989 17.091 17.7987 17.4076 17.6033 17.6027C17.4079 17.7979 17.0912 17.7978 16.896 17.6024ZM11.6925 7.74902C9.51342 7.74902 7.74689 9.51501 7.74689 11.6935C7.74689 13.8719 9.51342 15.6379 11.6925 15.6379C12.7828 15.6379 13.7697 15.1959 14.4838 14.4813C15.1971 13.7676 15.6382 12.7821 15.6382 11.6935C15.6382 9.51501 13.8717 7.74902 11.6925 7.74902Z" fill="currentColor"/>
        <path d="M11.6925 8.41569C11.4163 8.41569 11.1924 8.63955 11.1924 8.91569C11.1924 9.19183 11.4163 9.41569 11.6925 9.41569C12.9509 9.41569 13.971 10.4355 13.971 11.6935C13.971 11.9696 14.1949 12.1935 14.4712 12.1935C14.7474 12.1935 14.9713 11.9696 14.9713 11.6935C14.9713 9.8832 13.5034 8.41569 11.6925 8.41569Z" fill="currentColor"/>
    </g>
    <defs>
        <clipPath id="clip0_724_10603">
            <rect width="18" height="18" fill="white"/>
        </clipPath>
    </defs>
</svg>
