<svg width="18" height="18" viewBox="0 0 18 18" fill="none" xmlns="http://www.w3.org/2000/svg">
<g clip-path="url(#clip0_5292_10023)">
<path d="M12.8012 0.854109C11.6788 0.324292 10.3439 0 9.07637 0C5.25038 0 2.96178 3.16664 3.20799 6.26207C3.31958 7.66215 4.00706 9.01676 5.14388 10.0761C5.55106 10.4576 6.00611 10.7845 6.49759 11.0487C6.12574 10.6057 5.8801 10.0707 5.78648 9.49991C5.53219 7.94426 6.55951 5.65597 9.18317 5.65597C12.0049 5.65597 15.1114 8.33856 15.374 11.6371C15.5347 13.655 14.7697 15.4715 13.4765 16.7405C16.1513 15.187 17.9498 12.2911 17.9498 8.97488C17.9498 5.38672 15.8443 2.29039 12.8012 0.854109Z" fill="#86888C"/>
<path d="M14.7418 11.6878C14.6303 10.2877 13.9428 8.93307 12.806 7.87373C12.3988 7.49225 11.9437 7.16531 11.4522 6.90115C11.8241 7.34416 12.0697 7.87916 12.1634 8.44992C12.4176 10.0056 11.3903 12.2939 8.76666 12.2939C5.94496 12.2939 2.83846 9.61127 2.57579 6.3124C2.41514 4.29455 3.1801 2.47803 4.47338 1.20898C1.79857 2.76284 0 5.65873 0 8.97495C0 12.5631 2.10551 15.6594 5.14859 17.0957C6.27105 17.6255 7.60591 17.9498 8.87346 17.9498C12.6995 17.9498 14.9881 14.7832 14.7418 11.6878Z" fill="#86888C"/>
</g>
<defs>
<clipPath id="clip0_5292_10023">
<rect width="18" height="18" fill="white"/>
</clipPath>
</defs>
</svg>
