<svg width="18" height="18" viewBox="0 0 18 18" fill="none"
    xmlns="http://www.w3.org/2000/svg">
    <path fill-rule="evenodd" clip-rule="evenodd" d="M8.90592 11.3776C8.79051 11.3776 8.63478 11.4103 8.50709 11.538C8.38354 11.6614 8.35011 11.8104 8.34285 11.9069C8.32994 12.0787 8.3873 12.2409 8.41928 12.3234C8.4573 12.4216 8.50358 12.5134 8.53846 12.5782V13.5319V13.7265C8.43369 13.7017 8.34597 13.6711 8.27584 13.6415C8.1974 13.6084 8.14061 13.5766 8.10651 13.5555C8.08948 13.5449 8.07822 13.5371 8.07286 13.5333L8.06995 13.5312C7.87034 13.3741 7.58348 13.4095 7.42649 13.6119C7.2682 13.8159 7.30185 14.1123 7.50165 14.2739L7.503 14.275L7.50451 14.2762L7.50805 14.279L7.51715 14.286C7.52411 14.2913 7.53286 14.2978 7.54339 14.3054C7.56444 14.3204 7.59265 14.3396 7.6279 14.3614C7.69835 14.405 7.79731 14.4595 7.92369 14.5128C8.17717 14.6196 8.53979 14.721 9 14.721C9.46021 14.721 9.82283 14.6196 10.0763 14.5128C10.2027 14.4595 10.3017 14.405 10.3721 14.3614C10.4074 14.3396 10.4356 14.3204 10.4566 14.3054C10.4671 14.2978 10.4759 14.2913 10.4829 14.286L10.4919 14.279L10.4955 14.2762L10.497 14.275L10.498 14.2742C10.6978 14.1125 10.7318 13.8159 10.5735 13.6119C10.4165 13.4095 10.1297 13.3741 9.93006 13.5312L9.92296 13.5341L9.92633 13.5342C9.92056 13.5382 9.90936 13.5457 9.89349 13.5555C9.85939 13.5766 9.80259 13.6084 9.72416 13.6415C9.65402 13.6711 9.56631 13.7017 9.46154 13.7265V13.5334V12.5782C9.49642 12.5134 9.5427 12.4216 9.58072 12.3234C9.6127 12.2409 9.67006 12.0787 9.65714 11.9069C9.64989 11.8104 9.61646 11.6614 9.49291 11.538C9.36521 11.4103 9.20949 11.3776 9.09408 11.3776H8.90592Z" fill="currentColor"/>
    <path fill-rule="evenodd" clip-rule="evenodd" d="M13.8914 10.8018H14.0891C14.297 10.8018 14.4793 10.6598 14.5342 10.455L14.9836 8.77973C15.0216 8.63798 14.9927 8.48623 14.9054 8.36939C14.8181 8.25254 14.6824 8.18397 14.5385 8.18397H13.5728L13.5571 8.08528C13.4709 7.55009 13.3749 7.06766 13.2671 6.67746C13.2064 6.45783 13.1349 6.23947 13.0459 6.05098C13.7024 5.00362 13.7548 3.63692 13.6361 2.49771C13.5646 1.8112 13.3397 1.27776 13.0139 0.875537C12.6901 0.475616 12.2873 0.230998 11.8968 0.0855072C11.6998 0.0121221 11.4768 -0.0312448 11.2542 0.0271575C11.0129 0.0904359 10.8507 0.251521 10.749 0.42804C10.6548 0.591386 10.6045 0.779776 10.5715 0.951086C10.5377 1.12709 10.5155 1.32449 10.4957 1.52355C10.4894 1.58766 10.4832 1.65286 10.4768 1.71905C10.4122 2.39606 10.3378 3.17518 10.019 3.92681C9.79025 3.87576 9.46611 3.82818 9.0195 3.81078C9.01297 3.81052 9.00647 3.81041 9 3.81043C8.99353 3.81041 8.98702 3.81052 8.9805 3.81078C8.53389 3.82818 8.20975 3.87576 7.981 3.92681C7.66221 3.17518 7.58781 2.39606 7.52316 1.71905C7.51684 1.65286 7.51061 1.58766 7.50426 1.52355C7.48453 1.32449 7.46228 1.12709 7.42846 0.951086C7.39554 0.779776 7.34519 0.591385 7.25104 0.42804C7.14929 0.251521 6.98705 0.0904359 6.74582 0.0271575C6.52318 -0.0312448 6.30024 0.0121221 6.10324 0.0855072C5.71267 0.230998 5.30994 0.475617 4.98606 0.875537C4.66031 1.27776 4.43542 1.8112 4.36388 2.49771C4.24516 3.63692 4.29761 5.00362 4.95408 6.05098C4.86505 6.23947 4.79362 6.45783 4.73293 6.67746C4.6251 7.06766 4.52909 7.55009 4.44289 8.08528L4.4272 8.18397H3.46154C3.31761 8.18397 3.18191 8.25254 3.0946 8.36939C3.0073 8.48623 2.97838 8.63798 3.0164 8.77973L3.46577 10.455C3.5207 10.6598 3.70297 10.8018 3.91091 10.8018H4.10864C4.07679 11.1293 4.04679 11.4601 4.01853 11.7898C3.83341 13.9504 3.72106 17.0862 3.66297 18H4.5879C4.65099 16.9978 4.76056 13.944 4.9381 11.872C4.96884 11.5132 5.00155 11.1546 5.03631 10.8018H7.41925C7.62658 10.8018 7.80846 10.6606 7.86395 10.4566L8.08339 9.65002H8.99812L9 9.65002L9.00187 9.65002H9.91661L10.136 10.4566C10.1915 10.6606 10.3734 10.8018 10.5807 10.8018H12.9637C12.9984 11.1546 13.0312 11.5132 13.0619 11.872C13.2394 13.944 13.349 16.9978 13.4121 18H14.337C14.2789 17.0862 14.1666 13.9504 13.9815 11.7898C13.9532 11.4601 13.9232 11.1293 13.8914 10.8018ZM6.47613 0.952459C6.46095 0.956612 6.44223 0.962528 6.4196 0.970959C6.14956 1.07155 5.89612 1.23084 5.69742 1.47619C5.50058 1.71923 5.33648 2.07243 5.28177 2.59744C5.18138 3.56077 5.23468 4.52762 5.58326 5.26983C5.61644 5.23668 5.65006 5.20348 5.68374 5.17066C5.88165 4.97779 6.12403 4.75559 6.30057 4.64434C6.31009 4.63834 6.31982 4.63269 6.32974 4.62742C6.57219 4.49846 6.87407 4.35959 7.11426 4.25321C6.74961 3.36615 6.66604 2.47222 6.60525 1.82183C6.59863 1.75104 6.59228 1.68313 6.58587 1.61843C6.56635 1.42142 6.54751 1.26194 6.52265 1.13255C6.5063 1.04744 6.48989 0.989959 6.47613 0.952459ZM7.50024 5.10965C7.26787 5.2123 6.98966 5.34024 6.77341 5.45422C6.68706 5.51236 6.51752 5.66103 6.32106 5.85249C6.12494 6.04362 5.94151 6.23822 5.85481 6.34006C5.81048 6.39213 5.72241 6.56758 5.62132 6.93342C5.53012 7.26344 5.44361 7.68816 5.36254 8.18397H7.87117C8.01483 8.18397 8.1503 8.25228 8.23764 8.36876C8.31055 8.46601 8.34297 8.58758 8.32986 8.70749H8.99812L9 8.70749L9.00187 8.70749H9.67014C9.65703 8.58758 9.68945 8.46601 9.76236 8.36876C9.8497 8.25228 9.98517 8.18397 10.1288 8.18397H12.6375C12.5564 7.68816 12.4699 7.26344 12.3787 6.93342C12.2776 6.56758 12.1895 6.39213 12.1452 6.34006C12.0585 6.23822 11.8751 6.04362 11.6789 5.85249C11.4825 5.66103 11.3129 5.51235 11.2266 5.45422L10.0495 4.91498C10.0257 4.90429 9.73941 4.78359 9 4.75325C8.26059 4.78359 7.9743 4.90429 7.95046 4.91498C7.801 4.98132 7.64982 5.04358 7.50024 5.10965ZM10.8857 4.25321C11.1259 4.35959 11.4278 4.49846 11.6703 4.62742C11.6802 4.63269 11.6899 4.63834 11.6994 4.64434C11.876 4.75559 12.1184 4.97779 12.3163 5.17066C12.3499 5.20348 12.3836 5.23668 12.4167 5.26983C12.7653 4.52762 12.8186 3.56077 12.7182 2.59744C12.6635 2.07243 12.4994 1.71923 12.3026 1.47619C12.1039 1.23084 11.8504 1.07155 11.5804 0.970959C11.5578 0.962528 11.5391 0.956612 11.5239 0.952459C11.5101 0.989959 11.4937 1.04744 11.4773 1.13255C11.4525 1.26194 11.4337 1.42142 11.4141 1.61843C11.4077 1.68313 11.4014 1.75104 11.3948 1.82184C11.334 2.47223 11.2504 3.36615 10.8857 4.25321Z" fill="currentColor"/>
    <path fill-rule="evenodd" clip-rule="evenodd" d="M6.60525 1.82183L6.47613 0.952459C6.48989 0.989959 6.5063 1.04744 6.52265 1.13255C6.54751 1.26194 6.56635 1.42142 6.58587 1.61843C6.59228 1.68313 6.59863 1.75104 6.60525 1.82183Z" fill="currentColor"/>
</svg>
