<svg width="18" height="18" viewBox="0 0 18 18" fill="none"
    xmlns="http://www.w3.org/2000/svg">
    <g clip-path="url(#clip0_164_961)">
        <path d="M7.75 4.02979H10.27V15.8698C10.27 16.5398 9.72 17.0898 9.05 17.0898H8.97C8.3 17.0898 7.75 16.5398 7.75 15.8698V4.02979Z" fill="#555658"/>
        <path d="M9.01001 8.09971L14.4 13.4597C14.62 13.6797 15 13.5897 15.1 13.2997C15.61 11.7897 15.26 10.0697 14.05 8.86971C12.68 7.50971 10.63 7.25971 9.01001 8.10971V8.09971Z" fill="#82868B"/>
        <path d="M9.01001 8.05994H17.53C17.88 8.05994 18.11 7.68994 17.96 7.37994C17.17 5.77994 15.53 4.68994 13.63 4.68994C11.47 4.68994 9.64001 6.10994 9.02001 8.06994H9.01001V8.05994Z" fill="#75787C"/>
        <path d="M9.02002 8.02988L15.07 2.03988C15.32 1.78988 15.22 1.36988 14.89 1.25988C13.21 0.679883 11.26 1.05988 9.91002 2.39988C8.37002 3.91988 8.07002 6.21988 9.01002 8.03988H9.02002V8.02988Z" fill="#AAACB2"/>
        <path d="M8.99004 8.05992L2.96004 2.04992C2.71004 1.79992 2.81004 1.37992 3.14004 1.26992C4.83004 0.689917 6.77004 1.07992 8.11004 2.41992C9.64004 3.94992 9.94004 6.23992 8.99004 8.06992V8.05992Z" fill="#86888C"/>
        <path d="M8.99017 8.09971L3.60017 13.4597C3.38017 13.6797 3.00017 13.5897 2.90017 13.2997C2.39017 11.7897 2.74017 10.0697 3.95017 8.86971C5.32017 7.50971 7.37017 7.25971 8.99017 8.10971V8.09971Z" fill="#5D5E61"/>
        <path d="M8.99006 8.05994H0.48006C0.13006 8.05994 -0.0999401 7.68994 0.0500599 7.37994C0.84006 5.77994 2.48006 4.68994 4.38006 4.68994C6.54006 4.68994 8.37006 6.10994 8.99006 8.06994V8.05994Z" fill="#76787C"/>
    </g>
    <defs>
        <clipPath id="clip0_164_961">
            <rect width="18" height="18" fill="white"/>
        </clipPath>
    </defs>
</svg>
